<svg xmlns="http://www.w3.org/2000/svg" viewBox="0 0 1100 900" role="img" aria-labelledby="title desc">
  <title id="title">Atelier artisanal chaleureux</title>
  <desc id="desc">Composition illustrée avec bois, outils créatifs, fleurs et objets faits main.</desc>
  <defs>
    <linearGradient id="bg" x1="0" x2="1" y1="0" y2="1">
      <stop offset="0" stop-color="#f7d8a7"/>
      <stop offset=".52" stop-color="#ef8e73"/>
      <stop offset="1" stop-color="#2e7168"/>
    </linearGradient>
    <linearGradient id="wood" x1="0" x2="1">
      <stop offset="0" stop-color="#8f4f2f"/>
      <stop offset="1" stop-color="#d99a58"/>
    </linearGradient>
    <filter id="shadow" x="-20%" y="-20%" width="140%" height="140%">
      <feDropShadow dx="0" dy="24" stdDeviation="24" flood-color="#532d20" flood-opacity=".25"/>
    </filter>
  </defs>
  <rect width="1100" height="900" rx="44" fill="url(#bg)"/>
  <circle cx="154" cy="132" r="74" fill="#fff2d8" opacity=".72"/>
  <circle cx="952" cy="132" r="128" fill="#fcd2c0" opacity=".34"/>
  <circle cx="936" cy="722" r="94" fill="#133f3a" opacity=".2"/>
  <g filter="url(#shadow)">
    <rect x="134" y="496" width="832" height="246" rx="32" fill="url(#wood)"/>
    <path d="M176 558h734M165 632h759M214 704h626" stroke="#69371f" stroke-width="8" stroke-linecap="round" opacity=".3"/>
    <rect x="248" y="262" width="476" height="322" rx="30" fill="#fff5e7"/>
    <rect x="286" y="305" width="400" height="236" rx="22" fill="#244f49"/>
    <path d="M340 476c56-104 92-120 142-54 39 52 77 54 146-44" fill="none" stroke="#f8c56d" stroke-width="18" stroke-linecap="round"/>
    <text x="350" y="389" font-family="Georgia, serif" font-size="62" fill="#fff5e7">fait main</text>
    <rect x="738" y="398" width="72" height="238" rx="22" fill="#ffd469"/>
    <rect x="828" y="348" width="68" height="288" rx="21" fill="#f06f54"/>
    <path d="M774 398v-80c0-44 62-44 62 0v30" fill="none" stroke="#fff5e7" stroke-width="18" stroke-linecap="round"/>
    <g transform="translate(146 354)">
      <rect x="0" y="122" width="86" height="190" rx="18" fill="#234945"/>
      <path d="M43 122C-4 74 10 25 44 16c38 9 48 55-1 106z" fill="#f6c46a"/>
      <circle cx="43" cy="42" r="17" fill="#ef755f"/>
    </g>
    <g transform="translate(690 138)">
      <path d="M122 210C88 154 99 95 148 54c66 34 77 104 20 156z" fill="#f1c76f"/>
      <path d="M114 224C55 194 32 142 52 84c72-1 120 47 96 117z" fill="#2e7168"/>
      <path d="M152 229c55-36 72-92 43-150-68 10-106 61-75 128z" fill="#ef755f"/>
      <rect x="89" y="213" width="80" height="174" rx="27" fill="#fff2d8"/>
    </g>
  </g>
</svg>
